<svg width="86" height="57" viewBox="0 0 86 57" fill="none" xmlns="http://www.w3.org/2000/svg">
<path fill-rule="evenodd" clip-rule="evenodd" d="M1.87868 16.5037L16.1801 2.20221C16.7428 1.6396 17.5058 1.32353 18.3015 1.32353H82C83.6569 1.32353 85 2.66668 85 4.32353V52.6765C85 54.3333 83.6569 55.6765 82 55.6765H18.1577C17.4482 55.6765 16.7616 55.425 16.2199 54.9666L2.06217 42.987C1.38852 42.417 1 41.5793 1 40.6968V18.625C1 17.8293 1.31607 17.0663 1.87868 16.5037ZM13.353 34.6765C16.0819 34.6765 18.2941 32.4642 18.2941 29.7353C18.2941 27.0064 16.0819 24.7941 13.353 24.7941C10.624 24.7941 8.41177 27.0064 8.41177 29.7353C8.41177 32.4642 10.624 34.6765 13.353 34.6765Z" fill="#181C14"/>
<path d="M16.1801 2.20221L16.5337 2.55576L16.5337 2.55576L16.1801 2.20221ZM1.87868 16.5037L1.52513 16.1501L1.52513 16.1501L1.87868 16.5037ZM16.2199 54.9666L15.8969 55.3483L15.8969 55.3483L16.2199 54.9666ZM2.06217 42.987L1.7392 43.3687L1.7392 43.3687L2.06217 42.987ZM15.8266 1.84866L1.52513 16.1501L2.23223 16.8572L16.5337 2.55576L15.8266 1.84866ZM18.3015 0.823532C17.3732 0.823532 16.483 1.19228 15.8266 1.84866L16.5337 2.55576C17.0025 2.08692 17.6384 1.82353 18.3015 1.82353V0.823532ZM82 0.823532H18.3015V1.82353H82V0.823532ZM85.5 4.32353C85.5 2.39054 83.933 0.823532 82 0.823532V1.82353C83.3807 1.82353 84.5 2.94282 84.5 4.32353H85.5ZM85.5 52.6765V4.32353H84.5V52.6765H85.5ZM82 56.1765C83.933 56.1765 85.5 54.6095 85.5 52.6765H84.5C84.5 54.0572 83.3807 55.1765 82 55.1765V56.1765ZM18.1577 56.1765H82V55.1765H18.1577V56.1765ZM15.8969 55.3483C16.5289 55.8831 17.3299 56.1765 18.1577 56.1765V55.1765C17.5664 55.1765 16.9943 54.9669 16.5429 54.5849L15.8969 55.3483ZM1.7392 43.3687L15.8969 55.3483L16.5429 54.5849L2.38514 42.6053L1.7392 43.3687ZM0.5 40.6968C0.5 41.7264 0.953275 42.7037 1.7392 43.3687L2.38514 42.6053C1.82377 42.1303 1.5 41.4322 1.5 40.6968H0.5ZM0.5 18.625V40.6968H1.5V18.625H0.5ZM1.52513 16.1501C0.868749 16.8065 0.5 17.6967 0.5 18.625H1.5C1.5 17.962 1.76339 17.3261 2.23223 16.8572L1.52513 16.1501ZM17.7941 29.7353C17.7941 32.1881 15.8057 34.1765 13.353 34.1765V35.1765C16.358 35.1765 18.7941 32.7404 18.7941 29.7353H17.7941ZM13.353 25.2941C15.8057 25.2941 17.7941 27.2825 17.7941 29.7353H18.7941C18.7941 26.7302 16.358 24.2941 13.353 24.2941V25.2941ZM8.91177 29.7353C8.91177 27.2825 10.9002 25.2941 13.353 25.2941V24.2941C10.3479 24.2941 7.91177 26.7302 7.91177 29.7353H8.91177ZM13.353 34.1765C10.9002 34.1765 8.91177 32.1881 8.91177 29.7353H7.91177C7.91177 32.7404 10.3479 35.1765 13.353 35.1765V34.1765Z" fill="black"/>
<g filter="url(#filter0_d_7_26)">
<path d="M26.9851 26.026L27.6851 26.768L24.1011 30.226L27.6851 33.712L27.0131 34.454L22.9531 30.534V29.932L26.9851 26.026ZM35.7017 24.514H36.8357V35H35.7017V34.328L34.5817 35H31.7957L30.6337 33.306V28.742L31.7677 27.552H34.5677L35.7017 28.224V24.514ZM31.7677 33.166L32.2997 33.978H35.2957L35.7017 33.558V29.372L35.1697 28.574H32.2017L31.7677 29.022V33.166ZM40.1202 27.566H44.0402L45.2022 29.232L42.8922 31.612H40.1202V33.18L40.6662 33.992H43.6342L44.4182 33.222L45.0342 33.992L44.0542 35H40.1342L39.0002 33.32V28.728L40.1202 27.566ZM40.1202 29.022V30.604H42.4722L43.8862 29.12L43.5222 28.574H40.5682L40.1202 29.022ZM52.4767 27.552H53.6107V31.836L50.5587 35H49.5787L47.4087 31.78V27.552H48.5287V31.626L50.1247 34.006L52.4767 31.556V27.552ZM57.0073 27.566H60.8713L61.5993 28.644L60.9133 29.372L60.3533 28.546H57.4973L57.0633 28.924V29.988L57.5953 30.744H60.8993L61.8513 32.172V33.95L60.8993 35H56.5033L55.9433 34.132L56.6293 33.418L57.0073 33.992H60.4373L60.7313 33.656V32.34L60.3253 31.766H57.0073L55.9433 30.156V28.602L57.0073 27.566ZM69.0278 24.122L69.9798 24.444L65.5418 37.478L64.6038 37.156L69.0278 24.122ZM74.0203 26.026L78.0523 29.932V30.534L73.9923 34.454L73.3203 33.712L76.9043 30.226L73.3203 26.768L74.0203 26.026Z" fill="#F5F5F5"/>
</g>
<defs>
<filter id="filter0_d_7_26" x="18.9532" y="24.122" width="63.0992" height="21.356" filterUnits="userSpaceOnUse" color-interpolation-filters="sRGB">
<feFlood flood-opacity="0" result="BackgroundImageFix"/>
<feColorMatrix in="SourceAlpha" type="matrix" values="0 0 0 0 0 0 0 0 0 0 0 0 0 0 0 0 0 0 127 0" result="hardAlpha"/>
<feOffset dy="4"/>
<feGaussianBlur stdDeviation="2"/>
<feComposite in2="hardAlpha" operator="out"/>
<feColorMatrix type="matrix" values="0 0 0 0 0 0 0 0 0 0 0 0 0 0 0 0 0 0 0.25 0"/>
<feBlend mode="normal" in2="BackgroundImageFix" result="effect1_dropShadow_7_26"/>
<feBlend mode="normal" in="SourceGraphic" in2="effect1_dropShadow_7_26" result="shape"/>
</filter>
</defs>
</svg>
