<svg width="86" height="56" viewBox="0 0 86 56" fill="none" xmlns="http://www.w3.org/2000/svg">
<path fill-rule="evenodd" clip-rule="evenodd" d="M1.8856 16.0747L16.1813 1.87178C16.7434 1.31339 17.5035 1 18.2957 1H82C83.6569 1 85 2.34315 85 4V52C85 53.6569 83.6569 55 82 55H18.1523C17.446 55 16.7624 54.7508 16.2218 54.2964L2.06954 42.3991C1.39148 41.8291 1 40.9886 1 40.1027V18.2029C1 17.4039 1.31876 16.6379 1.8856 16.0747ZM13.353 34.1364C16.0819 34.1364 18.2941 31.9385 18.2941 29.2273C18.2941 26.5161 16.0819 24.3182 13.353 24.3182C10.624 24.3182 8.41177 26.5161 8.41177 29.2273C8.41177 31.9385 10.624 34.1364 13.353 34.1364Z" fill="#181C14"/>
<path d="M16.1813 1.87178L15.8289 1.51708L15.8289 1.51708L16.1813 1.87178ZM1.8856 16.0747L1.5332 15.72L1.5332 15.72L1.8856 16.0747ZM16.2218 54.2964L15.9001 54.6791L15.9001 54.6791L16.2218 54.2964ZM2.06954 42.3991L1.74779 42.7818L1.74779 42.7818L2.06954 42.3991ZM15.8289 1.51708L1.5332 15.72L2.238 16.4294L16.5337 2.22649L15.8289 1.51708ZM18.2957 0.5C17.3714 0.5 16.4847 0.865627 15.8289 1.51708L16.5337 2.22649C17.0021 1.76116 17.6355 1.5 18.2957 1.5V0.5ZM82 0.5H18.2957V1.5H82V0.5ZM85.5 4C85.5 2.067 83.933 0.5 82 0.5V1.5C83.3807 1.5 84.5 2.61929 84.5 4H85.5ZM85.5 52V4H84.5V52H85.5ZM82 55.5C83.933 55.5 85.5 53.933 85.5 52H84.5C84.5 53.3807 83.3807 54.5 82 54.5V55.5ZM18.1523 55.5H82V54.5H18.1523V55.5ZM15.9001 54.6791C16.5308 55.2093 17.3283 55.5 18.1523 55.5V54.5C17.5637 54.5 16.9941 54.2924 16.5436 53.9136L15.9001 54.6791ZM1.74779 42.7818L15.9001 54.6791L16.5436 53.9136L2.39128 42.0164L1.74779 42.7818ZM0.5 40.1027C0.5 41.1362 0.956726 42.1168 1.74779 42.7818L2.39128 42.0164C1.82623 41.5414 1.5 40.8409 1.5 40.1027H0.5ZM0.5 18.2029V40.1027H1.5V18.2029H0.5ZM1.5332 15.72C0.871886 16.377 0.5 17.2707 0.5 18.2029H1.5C1.5 17.5371 1.76563 16.8987 2.238 16.4294L1.5332 15.72ZM17.7941 29.2273C17.7941 31.6593 15.8088 33.6364 13.353 33.6364V34.6364C16.355 34.6364 18.7941 32.2177 18.7941 29.2273H17.7941ZM13.353 24.8182C15.8088 24.8182 17.7941 26.7953 17.7941 29.2273H18.7941C18.7941 26.2368 16.355 23.8182 13.353 23.8182V24.8182ZM8.91177 29.2273C8.91177 26.7953 10.8971 24.8182 13.353 24.8182V23.8182C10.3509 23.8182 7.91177 26.2368 7.91177 29.2273H8.91177ZM13.353 33.6364C10.8971 33.6364 8.91177 31.6593 8.91177 29.2273H7.91177C7.91177 32.2177 10.3509 34.6364 13.353 34.6364V33.6364Z" fill="black"/>
</svg>
