<svg width="94" height="65" viewBox="0 0 94 65" fill="none" xmlns="http://www.w3.org/2000/svg">
<g filter="url(#filter0_d_7_16)">
<path fill-rule="evenodd" clip-rule="evenodd" d="M5.87868 16.5037L20.1801 2.20221C20.7428 1.6396 21.5058 1.32353 22.3015 1.32353H86C87.6569 1.32353 89 2.66668 89 4.32353V52.6765C89 54.3333 87.6569 55.6765 86 55.6765H22.1577C21.4482 55.6765 20.7616 55.425 20.2199 54.9666L6.06217 42.987C5.38852 42.417 5 41.5793 5 40.6968V18.625C5 17.8293 5.31607 17.0663 5.87868 16.5037ZM17.353 34.6765C20.0819 34.6765 22.2941 32.4642 22.2941 29.7353C22.2941 27.0064 20.0819 24.7941 17.353 24.7941C14.624 24.7941 12.4118 27.0064 12.4118 29.7353C12.4118 32.4642 14.624 34.6765 17.353 34.6765Z" fill="#181C14"/>
<path d="M20.1801 2.20221L20.5337 2.55576L20.5337 2.55576L20.1801 2.20221ZM5.87868 16.5037L5.52513 16.1501L5.52513 16.1501L5.87868 16.5037ZM20.2199 54.9666L19.8969 55.3483L19.8969 55.3483L20.2199 54.9666ZM6.06217 42.987L5.7392 43.3687L5.7392 43.3687L6.06217 42.987ZM19.8266 1.84866L5.52513 16.1501L6.23223 16.8572L20.5337 2.55576L19.8266 1.84866ZM22.3015 0.823532C21.3732 0.823532 20.483 1.19228 19.8266 1.84866L20.5337 2.55576C21.0025 2.08692 21.6384 1.82353 22.3015 1.82353V0.823532ZM86 0.823532H22.3015V1.82353H86V0.823532ZM89.5 4.32353C89.5 2.39054 87.933 0.823532 86 0.823532V1.82353C87.3807 1.82353 88.5 2.94282 88.5 4.32353H89.5ZM89.5 52.6765V4.32353H88.5V52.6765H89.5ZM86 56.1765C87.933 56.1765 89.5 54.6095 89.5 52.6765H88.5C88.5 54.0572 87.3807 55.1765 86 55.1765V56.1765ZM22.1577 56.1765H86V55.1765H22.1577V56.1765ZM19.8969 55.3483C20.5289 55.8831 21.3299 56.1765 22.1577 56.1765V55.1765C21.5664 55.1765 20.9943 54.9669 20.5429 54.5849L19.8969 55.3483ZM5.7392 43.3687L19.8969 55.3483L20.5429 54.5849L6.38514 42.6053L5.7392 43.3687ZM4.5 40.6968C4.5 41.7264 4.95327 42.7037 5.7392 43.3687L6.38514 42.6053C5.82377 42.1303 5.5 41.4322 5.5 40.6968H4.5ZM4.5 18.625V40.6968H5.5V18.625H4.5ZM5.52513 16.1501C4.86875 16.8065 4.5 17.6967 4.5 18.625H5.5C5.5 17.962 5.76339 17.3261 6.23223 16.8572L5.52513 16.1501ZM21.7941 29.7353C21.7941 32.1881 19.8057 34.1765 17.353 34.1765V35.1765C20.358 35.1765 22.7941 32.7404 22.7941 29.7353H21.7941ZM17.353 25.2941C19.8057 25.2941 21.7941 27.2825 21.7941 29.7353H22.7941C22.7941 26.7302 20.358 24.2941 17.353 24.2941V25.2941ZM12.9118 29.7353C12.9118 27.2825 14.9002 25.2941 17.353 25.2941V24.2941C14.3479 24.2941 11.9118 26.7302 11.9118 29.7353H12.9118ZM17.353 34.1765C14.9002 34.1765 12.9118 32.1881 12.9118 29.7353H11.9118C11.9118 32.7404 14.3479 35.1765 17.353 35.1765V34.1765Z" fill="black"/>
<g filter="url(#filter1_d_7_16)">
<path d="M30.9851 26.026L31.6851 26.768L28.1011 30.226L31.6851 33.712L31.0131 34.454L26.9531 30.534V29.932L30.9851 26.026ZM39.7017 24.514H40.8357V35H39.7017V34.328L38.5817 35H35.7957L34.6337 33.306V28.742L35.7677 27.552H38.5677L39.7017 28.224V24.514ZM35.7677 33.166L36.2997 33.978H39.2957L39.7017 33.558V29.372L39.1697 28.574H36.2017L35.7677 29.022V33.166ZM44.1202 27.566H48.0402L49.2022 29.232L46.8922 31.612H44.1202V33.18L44.6662 33.992H47.6342L48.4182 33.222L49.0342 33.992L48.0542 35H44.1342L43.0002 33.32V28.728L44.1202 27.566ZM44.1202 29.022V30.604H46.4722L47.8862 29.12L47.5222 28.574H44.5682L44.1202 29.022ZM56.4767 27.552H57.6107V31.836L54.5587 35H53.5787L51.4087 31.78V27.552H52.5287V31.626L54.1247 34.006L56.4767 31.556V27.552ZM61.0073 27.566H64.8713L65.5993 28.644L64.9133 29.372L64.3533 28.546H61.4973L61.0633 28.924V29.988L61.5953 30.744H64.8993L65.8513 32.172V33.95L64.8993 35H60.5033L59.9433 34.132L60.6293 33.418L61.0073 33.992H64.4373L64.7313 33.656V32.34L64.3253 31.766H61.0073L59.9433 30.156V28.602L61.0073 27.566ZM73.0278 24.122L73.9798 24.444L69.5418 37.478L68.6038 37.156L73.0278 24.122ZM78.0203 26.026L82.0523 29.932V30.534L77.9923 34.454L77.3203 33.712L80.9043 30.226L77.3203 26.768L78.0203 26.026Z" fill="#F5F5F5"/>
</g>
</g>
<defs>
<filter id="filter0_d_7_16" x="0.5" y="0.823532" width="93" height="63.3529" filterUnits="userSpaceOnUse" color-interpolation-filters="sRGB">
<feFlood flood-opacity="0" result="BackgroundImageFix"/>
<feColorMatrix in="SourceAlpha" type="matrix" values="0 0 0 0 0 0 0 0 0 0 0 0 0 0 0 0 0 0 127 0" result="hardAlpha"/>
<feOffset dy="4"/>
<feGaussianBlur stdDeviation="2"/>
<feComposite in2="hardAlpha" operator="out"/>
<feColorMatrix type="matrix" values="0 0 0 0 0 0 0 0 0 0 0 0 0 0 0 0 0 0 0.25 0"/>
<feBlend mode="normal" in2="BackgroundImageFix" result="effect1_dropShadow_7_16"/>
<feBlend mode="normal" in="SourceGraphic" in2="effect1_dropShadow_7_16" result="shape"/>
</filter>
<filter id="filter1_d_7_16" x="22.9532" y="24.122" width="63.0992" height="21.356" filterUnits="userSpaceOnUse" color-interpolation-filters="sRGB">
<feFlood flood-opacity="0" result="BackgroundImageFix"/>
<feColorMatrix in="SourceAlpha" type="matrix" values="0 0 0 0 0 0 0 0 0 0 0 0 0 0 0 0 0 0 127 0" result="hardAlpha"/>
<feOffset dy="4"/>
<feGaussianBlur stdDeviation="2"/>
<feComposite in2="hardAlpha" operator="out"/>
<feColorMatrix type="matrix" values="0 0 0 0 0 0 0 0 0 0 0 0 0 0 0 0 0 0 0.25 0"/>
<feBlend mode="normal" in2="BackgroundImageFix" result="effect1_dropShadow_7_16"/>
<feBlend mode="normal" in="SourceGraphic" in2="effect1_dropShadow_7_16" result="shape"/>
</filter>
</defs>
</svg>
